HIERARCHY
ROOT Hips
{
	OFFSET 0.000000 0.000000 0.000000
	CHANNELS 6 Xposition Yposition Zposition Zrotation Yrotation Xrotation 
	JOINT LHipJoint
	{
		OFFSET 0.000000 0.000000 0.000000
		CHANNELS 3 Zrotation Yrotation Xrotation
		JOINT LeftUpLeg
		{
			OFFSET 1.363060 -1.794630 0.839290
			CHANNELS 3 Zrotation Yrotation Xrotation
			JOINT LeftLeg
			{
				OFFSET 2.448110 -6.726130 0.000000
				CHANNELS 3 Zrotation Yrotation Xrotation
				JOINT LeftFoot
				{
					OFFSET 2.562200 -7.039590 0.000000
					CHANNELS 3 Zrotation Yrotation Xrotation
					JOINT LeftToeBase
					{
						OFFSET 0.157640 -0.433110 2.322550
						CHANNELS 3 Zrotation Yrotation Xrotation
						End Site
						{
							OFFSET 0.000000 0.000000 0.000000
						}
					}
				}
			}
		}
	}
	JOINT RHipJoint
	{
		OFFSET 0.000000 0.000000 0.000000
		CHANNELS 3 Zrotation Yrotation Xrotation
		JOINT RightUpLeg
		{
			OFFSET -1.305520 -1.794630 0.839290
			CHANNELS 3 Zrotation Yrotation Xrotation
			JOINT RightLeg
			{
				OFFSET -2.542530 -6.985550 0.000000
				CHANNELS 3 Zrotation Yrotation Xrotation
				JOINT RightFoot
				{
					OFFSET -2.568260 -7.056230 0.000000
					CHANNELS 3 Zrotation Yrotation Xrotation
					JOINT RightToeBase
					{
						OFFSET -0.164730 -0.452590 2.363150
						CHANNELS 3 Zrotation Yrotation Xrotation
						End Site
						{
							OFFSET 0.000000 0.000000 0.000000
						}
					}
				}
			}
		}
	}
	JOINT LowerBack
	{
		OFFSET 0.000000 0.000000 0.000000
		CHANNELS 3 Zrotation Yrotation Xrotation
		JOINT Spine
		{
			OFFSET 0.028270 2.035590 -0.193380
			CHANNELS 3 Zrotation Yrotation Xrotation
			JOINT Spine1
			{
				OFFSET 0.056720 2.048850 -0.042750
				CHANNELS 3 Zrotation Yrotation Xrotation
				JOINT Neck
				{
					OFFSET 0.000000 0.000000 0.000000
					CHANNELS 3 Zrotation Yrotation Xrotation
					JOINT Neck1
					{
						OFFSET -0.054170 1.746240 0.172020
						CHANNELS 3 Zrotation Yrotation Xrotation
						JOINT Head
						{
							OFFSET 0.104070 1.761360 -0.123970
							CHANNELS 3 Zrotation Yrotation Xrotation
							End Site
							{
								OFFSET 0.000000 0.000000 0.000000
							}
						}
					}
				}
				JOINT LeftShoulder
				{
					OFFSET 0.000000 0.000000 0.000000
					CHANNELS 3 Zrotation Yrotation Xrotation
					JOINT LeftArm
					{
						OFFSET 3.362410 1.200890 -0.311210
						CHANNELS 3 Zrotation Yrotation Xrotation
						JOINT LeftForeArm
						{
							OFFSET 4.983000 -0.000000 -0.000000
							CHANNELS 3 Zrotation Yrotation Xrotation
							JOINT LeftHand
							{
								OFFSET 3.483560 -0.000000 -0.000000
								CHANNELS 3 Zrotation Yrotation Xrotation
								JOINT LeftFingerBase
								{
									OFFSET 0.000000 0.000000 0.000000
									CHANNELS 3 Zrotation Yrotation Xrotation
									JOINT LeftHandIndex1
									{
										OFFSET 0.715260 -0.000000 -0.000000
										CHANNELS 3 Zrotation Yrotation Xrotation
										End Site
										{
											OFFSET 0.000000 0.000000 0.000000
										}
									}
								}
								JOINT LThumb
								{
									OFFSET 0.000000 0.000000 0.000000
									CHANNELS 3 Zrotation Yrotation Xrotation
									End Site
									{
										OFFSET 0.000000 0.000000 0.000000
									}
								}
							}
						}
					}
				}
				JOINT RightShoulder
				{
					OFFSET 0.000000 0.000000 0.000000
					CHANNELS 3 Zrotation Yrotation Xrotation
					JOINT RightArm
					{
						OFFSET -3.136600 1.374050 -0.404650
						CHANNELS 3 Zrotation Yrotation Xrotation
						JOINT RightForeArm
						{
							OFFSET -5.241900 -0.000000 -0.000000
							CHANNELS 3 Zrotation Yrotation Xrotation
							JOINT RightHand
							{
								OFFSET -3.444170 -0.000000 -0.000000
								CHANNELS 3 Zrotation Yrotation Xrotation
								JOINT RightFingerBase
								{
									OFFSET 0.000000 0.000000 0.000000
									CHANNELS 3 Zrotation Yrotation Xrotation
									JOINT RightHandIndex1
									{
										OFFSET -0.622530 -0.000000 -0.000000
										CHANNELS 3 Zrotation Yrotation Xrotation
										End Site
										{
											OFFSET 0.000000 0.000000 0.000000
										}
									}
								}
								JOINT RThumb
								{
									OFFSET 0.000000 0.000000 0.000000
									CHANNELS 3 Zrotation Yrotation Xrotation
									End Site
									{
										OFFSET 0.000000 0.000000 0.000000
									}
								}
							}
						}
					}
				}
			}
		}
	}
}
MOTION
Frames: 5
Frame Time: 0.008333
2.776249 17.397398 0.552716 6.384339 -62.753452 0.705966 -9.805329 2.191325 5.921554 -3.889060 -7.889553 -14.596529 -1.773644 -0.780330 8.921885 0.178546 3.120801 4.530498 0.972000 0.000001 -57.841000 11.366054 -3.506837 -0.146784 -0.722146 -23.149971 -4.484869 1.401187 -0.013204 5.705403 -2.404287 -14.609342 4.195896 -3.722500 -0.000000 -67.728000 -4.963799 4.211619 -7.701396 -2.153602 4.518443 -4.246332 -4.600979 4.547813 -0.738132 -2.587089 -2.687666 -6.924837 -1.384068 -0.111164 0.204141 0.000000 0.000000 0.000000 7.169131 13.927297 -3.294021 -22.945351 -54.013738 -8.004670 177.784761 -61.044832 179.956017 0.735472 -5.915637 -0.029186 0.278871 0.898630 -0.000000 0.000000 0.000000 0.000000 0.000000 0.000000 0.000000 -6.004157 3.193365 5.419014 -18.033002 41.233370 -32.724102 1.171041 -2.813382 -0.057065 -7.047852 -10.257342 0.663979 0.333828 0.026531 0.000000 0.000000 0.000000 0.000000 0.000000 0.000000 0.000000 
2.758732 17.394250 0.554434 6.076278 -62.564611 0.850793 -9.784991 2.242907 5.956038 -3.823689 -7.841870 -14.315830 -1.781816 -0.788233 8.580343 0.178582 3.121515 4.548928 0.973000 -0.000000 -57.720400 11.374799 -3.521611 -0.202166 -0.725534 -23.463660 -4.306396 1.421259 -0.029476 5.885772 -2.357407 -14.407822 4.296784 -3.684899 0.000000 -68.144500 -4.881421 4.054722 -7.732855 -2.121915 4.363678 -4.186474 -4.579091 4.406980 -0.503444 -2.394002 -4.015057 -7.067773 -1.246796 -0.099358 0.171088 0.000000 0.000000 0.000000 7.412760 14.251308 -3.293855 -23.429445 -52.911747 -7.736156 177.731076 -59.768292 179.951899 1.110314 -5.845693 -0.051942 0.264244 0.898277 -0.000000 0.000000 0.000000 0.000000 0.000000 0.000000 0.000000 -6.452604 1.850158 5.157694 -18.058351 43.706972 -36.574575 0.818971 -2.498692 -0.054105 -7.615443 -8.848980 0.613302 0.329193 -0.020554 0.000000 0.000000 0.000000 0.000000 0.000000 0.000000 0.000000 
2.742677 17.387773 0.559066 5.680020 -62.103285 1.075142 -9.740427 2.290646 6.051268 -3.698430 -8.222549 -14.042416 -1.778562 -0.785504 8.302083 0.196043 3.222997 4.468717 0.986800 0.000000 -57.468700 11.389290 -3.515035 -0.309701 -0.729274 -23.855781 -4.007069 1.428800 -0.043131 6.067168 -2.338553 -14.377003 4.367535 -3.684200 -0.000000 -68.515201 -4.782937 3.824444 -7.763695 -2.040778 4.134730 -4.141156 -4.407590 4.187019 -0.325856 -2.491915 -5.256998 -7.048133 -0.967613 -0.080093 0.188221 0.000000 0.000000 0.000000 7.440849 14.353713 -3.182099 -23.728394 -51.723483 -7.547697 177.705678 -58.547649 179.948060 1.482808 -5.763237 -0.074080 0.247344 0.899553 0.000000 0.000000 0.000000 0.000000 0.000000 0.000000 0.000000 -8.024842 0.742641 4.595426 -14.322341 44.884165 -39.635409 0.092876 2.163433 -0.057076 -8.397443 -8.131035 0.611714 0.304149 -0.092089 -0.000000 0.000000 0.000000 0.000000 0.000000 0.000000 0.000000 
2.729270 17.379598 0.565527 5.240699 -61.442448 1.338699 -9.685232 2.335082 6.189859 -3.515389 -8.966255 -13.777118 -1.763059 -0.768929 8.085215 0.229293 3.411388 4.323095 1.011500 0.000000 -57.125000 11.397629 -3.484353 -0.466244 -0.724085 -24.266253 -3.593578 1.419289 -0.051838 6.229416 -2.350353 -14.537987 4.437420 -3.735000 0.000000 -68.828400 -4.599584 3.517381 -7.781958 -1.934331 3.818001 -4.129062 -4.243001 3.878554 -0.278644 -2.681626 -6.038623 -6.849619 -0.714897 -0.065943 0.255417 0.000000 0.000000 0.000000 7.273782 14.239767 -2.977299 -23.631720 -50.362023 -7.534261 177.730667 -57.365415 179.944590 1.854440 -5.665929 -0.095702 0.225851 0.904704 0.000000 0.000000 0.000000 0.000000 0.000000 0.000000 0.000000 -9.728675 0.074141 3.845194 -9.080740 45.120920 -38.183764 -0.492048 8.818898 -0.057296 -8.185674 -7.403485 0.533856 0.254734 -0.168616 -0.000000 0.000000 0.000000 0.000000 0.000000 0.000000 0.000000 
2.717437 17.370431 0.572778 4.774826 -60.653447 1.607632 -9.616320 2.390292 6.377606 -3.282015 -9.973126 -13.532669 -1.739578 -0.741127 7.936500 0.272284 3.644381 4.131321 1.039800 -0.000000 -56.744301 11.405342 -3.441988 -0.637635 -0.701776 -24.672409 -3.098496 1.392767 -0.051389 6.367214 -2.388835 -14.869883 4.506718 -3.833700 -0.000000 -69.080900 -4.427089 3.133239 -7.834504 -1.853870 3.417558 -4.152392 -4.189927 3.485985 -0.309211 -2.595191 -6.144412 -6.508490 -0.649179 -0.067744 0.357657 0.000000 0.000000 0.000000 7.212545 14.007744 -2.734512 -23.382931 -48.954943 -7.508304 177.813444 -56.289135 179.942139 2.164998 -5.549043 -0.113003 0.201812 0.914069 0.000000 0.000000 0.000000 0.000000 0.000000 0.000000 0.000000 -10.328792 -0.096658 3.171086 -5.067752 43.996496 -32.703579 -0.785527 16.881687 -0.059063 -7.951105 -7.004442 0.482844 0.212470 -0.237858 -0.000000 0.000000 0.000000 0.000000 0.000000 0.000000 0.000000 
